<svg width="40" height="40" viewBox="0 0 40 40" fill="none" xmlns="http://www.w3.org/2000/svg">
    <g clip-path="url(#7xj3czrcha)" fill="#3D4F27">
        <path d="M39.414 35.154H23.855l-2.088-1.878a.586.586 0 0 0-.784.872l1.119 1.006H3.977l3.927-4.015a1.44 1.44 0 0 1 1.023-.43h7.683c.354 0 .694.13.957.367l1.29 1.16a.586.586 0 0 0 .784-.87l-1.29-1.162a2.6 2.6 0 0 0-1.741-.667h-2.892l-.006-.022a4.674 4.674 0 0 0-3.78-3.34v-10.84h.695c.638 0 1.158-.519 1.158-1.157v-1.11a1.226 1.226 0 0 0 1.114-1.219V9.26c0-.675-.55-1.225-1.225-1.225h-.945l.317-1.783a1.395 1.395 0 0 0-1.378-1.643H8.665v-.273a.586.586 0 1 0-1.173 0v.273H6.49a1.396 1.396 0 0 0-1.378 1.64l.313 1.786h-.94c-.676 0-1.226.55-1.226 1.225v2.59c0 .638.49 1.163 1.114 1.219v1.11c0 .637.52 1.157 1.158 1.157h.696v2.845a.586.586 0 0 0 1.172 0v-2.845H8.76V26.12H7.4v-5.224a.586.586 0 1 0-1.173 0v5.224h-.852a4.596 4.596 0 0 0-4.59 4.591v4.443H.585a.586.586 0 1 0 0 1.172h38.828a.586.586 0 0 0 0-1.172zM6.266 6.047a.225.225 0 0 1 .05-.185.223.223 0 0 1 .173-.081h3.179c.092 0 .148.05.174.081.025.03.065.094.049.185l-.353 1.988H6.614l-.348-1.988zM4.43 9.26c0-.029.023-.053.052-.053h7.19c.03 0 .054.024.054.053v2.59c0 .029-.024.052-.053.052h-7.19a.053.053 0 0 1-.053-.053V9.26zm1.113 3.815h5.068v1.088H5.544v-1.088zM1.956 30.71a3.422 3.422 0 0 1 3.418-3.418H9.23c1.45 0 2.746.908 3.255 2.244H8.927a2.62 2.62 0 0 0-1.861.783l-4.728 4.834h-.382V30.71z"/>
        <path d="M10.72 10.555a.586.586 0 1 1-1.173 0 .586.586 0 0 1 1.172 0zM8.712 10.555a.586.586 0 1 1-1.173 0 .586.586 0 0 1 1.173 0zM6.61 10.555a.586.586 0 1 1-1.173 0 .586.586 0 0 1 1.173 0zM15.677 21.175l-.81.283a1.456 1.456 0 0 0-.938 1.784c.178.624.755 1.059 1.406 1.059h.011l5.852-.056c.268-.002.535-.04.792-.114l3.94-1.11.11.383c.087.306.288.559.566.713a1.182 1.182 0 0 0 .904.104l2.534-.725c.63-.18.997-.84.816-1.47l-.103-.363 7.209-2.03a1.784 1.784 0 0 0 1.302-1.608 1.785 1.785 0 0 0-1.068-1.773l-1.603-.71a5.809 5.809 0 0 0-4.212-.198l-3.749 1.309a.587.587 0 0 0 .386 1.106l3.746-1.307a4.64 4.64 0 0 1 2.695-.073l-.542.15a.586.586 0 1 0 .312 1.13l2.002-.552.49.217c.375.166.38.516.374.62a.613.613 0 0 1-.453.56L30.35 20.56a1.19 1.19 0 0 0-1.264-.412l-2.534.725a1.183 1.183 0 0 0-.853.997l-4.03 1.134a1.794 1.794 0 0 1-.48.07l-5.853.055h-.002a.288.288 0 0 1-.093-.56l.008-.002 10.981-3.832a.586.586 0 1 0-.386-1.107l-5.84 2.038-3.373-2.959a1.982 1.982 0 0 0-1.863-.42l-.932.266a.701.701 0 0 0-.458.42.702.702 0 0 0 .06.62l2.24 3.583zm11.188.832c.003-.006.007-.008.01-.008l2.534-.725a.013.013 0 0 1 .004 0c.008 0 .014.004.017.011l.303 1.063a.017.017 0 0 1-.011.02l-2.534.725c-.002.001-.007.002-.013-.001-.006-.004-.007-.008-.008-.01l-.304-1.062c0-.003-.002-.007.002-.013zM15.09 17.413a.816.816 0 0 1 .768.174l2.875 2.522-1.92.67-2.047-3.273.324-.093z"/>
        <path d="M32.137 18.738a.586.586 0 1 0-.358-1.116.586.586 0 0 0 .358 1.116zM30.277 19.336a.586.586 0 1 0-.358-1.117.586.586 0 0 0 .358 1.117zM28.422 19.932a.586.586 0 1 0-.36-1.117.586.586 0 0 0 .36 1.117zM26.204 19.411a.586.586 0 1 0 .359 1.117.586.586 0 0 0-.359-1.117zM24.349 20.009a.586.586 0 1 0 .358 1.116.586.586 0 0 0-.358-1.116zM22.493 20.604a.586.586 0 1 0 .359 1.117.586.586 0 0 0-.359-1.117zM9.777 31.531H9.21a.586.586 0 0 0 0 1.173h.566a.586.586 0 1 0 0-1.173zM11.992 31.531h-.566a.586.586 0 0 0 0 1.173h.566a.586.586 0 0 0 0-1.173zM14.21 31.531h-.565a.586.586 0 0 0 0 1.173h.565a.586.586 0 1 0 0-1.173zM16.425 31.531h-.565a.586.586 0 0 0 0 1.173h.565a.586.586 0 1 0 0-1.173zM9.777 33.365H9.21a.586.586 0 1 0 0 1.172h.566a.586.586 0 1 0 0-1.172zM7.378 33.365h-.565a.586.586 0 1 0 0 1.172h.565a.586.586 0 1 0 0-1.172zM18.325 33.365a.586.586 0 1 0 0 1.172h.565a.586.586 0 0 0 0-1.172h-.566zM11.992 33.365h-.566a.586.586 0 0 0 0 1.172h.566a.586.586 0 0 0 0-1.172zM14.21 33.365h-.565a.586.586 0 1 0 0 1.172h.565a.586.586 0 1 0 0-1.172zM16.425 33.365h-.565a.586.586 0 1 0 0 1.172h.565a.586.586 0 1 0 0-1.172z"/>
    </g>
    <defs>
        <clipPath id="7xj3czrcha">
            <path fill="#fff" d="M0 0h40v40H0z"/>
        </clipPath>
    </defs>
</svg>
