<svg width="60" height="60" viewBox="0 0 60 60" fill="none" xmlns="http://www.w3.org/2000/svg">
    <path fill-rule="evenodd" clip-rule="evenodd" d="M42.839 27.955h-1.21v-3.943h1.21v3.943zm-5.65 10.487a.99.99 0 0 1-.988.988H20.573a.99.99 0 0 1-.989-.988V22.158a2.52 2.52 0 0 1 2.518-2.517h12.57a2.52 2.52 0 0 1 2.517 2.517v16.284zm-1.707 3.72h-3.194a.103.103 0 0 1-.101-.1v-1.11h3.396v1.11c0 .054-.048.1-.101.1zm-10.895-.1c0 .054-.047.1-.101.1h-3.194a.103.103 0 0 1-.101-.1v-1.11h3.396v1.11zm-9.442-14.107h-1.21v-3.943h1.21v3.943zm29.216-4.109c0-.749-.604-1.357-1.365-1.357v-.768a2.513 2.513 0 0 0-2.511-2.51H37.43a4.025 4.025 0 0 0-2.76-1.093H22.103a4.023 4.023 0 0 0-2.76 1.093H16.29a2.513 2.513 0 0 0-2.51 2.51v.768c-.762 0-1.366.608-1.366 1.357v4.274c0 .748.607 1.357 1.355 1.357h1.543c.748 0 1.356-.609 1.356-1.357v-4.274c0-.749-.605-1.357-1.367-1.357v-.768c0-.545.444-.988.989-.988h2.034c-.169.443-.26.923-.26 1.425v16.284c0 1.065.667 1.978 1.605 2.34v1.28c0 .895.73 1.622 1.624 1.622h3.194c.894 0 1.622-.727 1.622-1.622v-1.11h4.557v1.11c0 .895.727 1.622 1.622 1.622h3.194c.895 0 1.624-.727 1.624-1.622v-1.28a2.513 2.513 0 0 0 1.606-2.34V22.158c0-.502-.092-.982-.26-1.425h2.033c.545 0 .989.443.989.988v.768c-.762 0-1.367.608-1.367 1.357v4.274c0 .748.609 1.357 1.356 1.357h1.543c.748 0 1.355-.609 1.355-1.357v-4.274zm-.793 10.334a.761.761 0 0 1-.762.761h-1.298a.76.76 0 1 1 0-1.523h1.298c.42 0 .762.342.762.762zm-6.29 18.374a.76.76 0 0 1-.761.761h-1.3a.76.76 0 1 1 0-1.522h1.3c.42 0 .76.341.76.761zm4.815-6.35c0 .42-.341.76-.761.76h-1.299a.76.76 0 1 1 0-1.522h1.299c.42 0 .761.34.761.761zm-4.816 0c0 .42-.34.76-.76.76h-1.3a.76.76 0 1 1 0-1.522h1.3c.42 0 .76.34.76.761zm4.816 6.35a.76.76 0 0 1-.761.761h-1.299a.76.76 0 1 1 0-1.522h1.299c.42 0 .761.341.761.761zm6.83-3.825v1.3a.76.76 0 1 1-1.522 0v-1.3a.762.762 0 0 1 1.522 0zm-2.015 3.825a.76.76 0 0 1-.761.761h-1.299a.76.76 0 1 1 0-1.522h1.299c.42 0 .761.341.761.761zM50.712 26.3v1.3a.76.76 0 1 1-1.523 0v-1.3a.761.761 0 0 1 1.523 0zm-3.804 19.903c0 .42-.34.761-.761.761h-1.299a.761.761 0 1 1 0-1.522h1.299c.42 0 .761.34.761.761zm3.804-15.087v1.299a.76.76 0 1 1-1.523 0v-1.299a.762.762 0 0 1 1.523 0zm-4.39 3.825a.76.76 0 1 1 0-1.523h1.3a.762.762 0 0 1 0 1.523h-1.3zm-13.86 11.262c0 .42-.34.761-.76.761h-1.3a.761.761 0 1 1 0-1.522h1.3c.42 0 .76.34.76.761zm-19.26 6.351a.76.76 0 0 1-.761.761h-1.299a.76.76 0 1 1 0-1.522h1.299c.42 0 .761.341.761.761zm4.815 0a.76.76 0 0 1-.76.761h-1.3a.76.76 0 1 1 0-1.522h1.3c.42 0 .76.341.76.761zm14.445 0a.76.76 0 0 1-.76.761h-1.3a.76.76 0 1 1 0-1.522h1.3c.42 0 .76.341.76.761zm-9.63 0a.76.76 0 0 1-.76.761h-1.3a.76.76 0 1 1 0-1.522h1.3c.42 0 .76.341.76.761zm4.816 0a.76.76 0 0 1-.761.761h-1.3a.76.76 0 1 1 0-1.522h1.3c.42 0 .761.341.761.761zm22.785-30.961c-.175.276-.336.53-.482.763-1.207-1.926-3.642-5.59-3.642-7.056a3.647 3.647 0 0 1 3.642-3.643 3.647 3.647 0 0 1 3.643 3.643c0 1.304-1.979 4.427-3.161 6.293zm-.482-11.458a5.171 5.171 0 0 0-5.165 5.165c0 1.619 1.606 4.284 3.396 7.105.312.494.584.921.786 1.259a1.144 1.144 0 0 0 1.966 0c.202-.338.472-.763.784-1.257 1.79-2.825 3.398-5.495 3.398-7.107a5.171 5.171 0 0 0-5.165-5.165zm0 6.304a.955.955 0 0 0 .954-.954.955.955 0 1 0-.954.953zm0-3.43a2.479 2.479 0 0 0-2.475 2.476 2.478 2.478 0 0 0 2.475 2.476 2.479 2.479 0 0 0 2.476-2.475 2.48 2.48 0 0 0-2.476-2.477zM10.048 43.001a.954.954 0 1 1 0-1.908.954.954 0 0 1 0 1.908zm0-3.429a2.479 2.479 0 0 1 2.475 2.476 2.478 2.478 0 0 1-2.475 2.476 2.479 2.479 0 0 1-2.476-2.476 2.48 2.48 0 0 1 2.476-2.476zm0 9.347c-1.207-1.927-3.643-5.587-3.643-7.056a3.648 3.648 0 0 1 3.643-3.643 3.647 3.647 0 0 1 3.642 3.643c0 1.467-2.438 5.122-3.642 7.056zm.983 1.308a1.146 1.146 0 0 1-1.967 0c-.202-.338-.473-.765-.786-1.26-1.79-2.82-3.395-5.485-3.395-7.104a5.171 5.171 0 0 1 5.165-5.165 5.171 5.171 0 0 1 5.164 5.165c0 1.612-1.606 4.282-3.397 7.108a59.98 59.98 0 0 0-.784 1.256zm22.197-36.424a6.844 6.844 0 0 0-9.683 0 .76.76 0 1 1-1.076-1.075 8.362 8.362 0 0 1 11.835 0 .76.76 0 1 1-1.076 1.075zm-13.297-2.537a.762.762 0 0 0 1.077 0 10.428 10.428 0 0 1 14.758 0 .762.762 0 0 0 .538.223c.672 0 1.018-.819.538-1.3-4.667-4.671-12.244-4.672-16.91 0a.762.762 0 0 0 0 1.077zm8.456 2.312a5.036 5.036 0 0 0-3.584 1.484.762.762 0 0 0 1.077 1.077 3.542 3.542 0 0 1 5.013 0c.15.148.345.221.54.221.675 0 1.015-.82.537-1.298a5.034 5.034 0 0 0-3.583-1.484zm5.32 22.677a.88.88 0 0 0 0-1.756.879.879 0 1 0 0 1.756zm0-3.28a2.403 2.403 0 0 0-2.4 2.4 2.403 2.403 0 0 0 2.4 2.402c1.324 0 2.4-1.077 2.4-2.401 0-1.323-1.076-2.4-2.4-2.4zm-10.641 3.28a.878.878 0 1 0 0-1.756.878.878 0 0 0 0 1.756zm0-3.28a2.403 2.403 0 0 0-2.4 2.4 2.403 2.403 0 0 0 2.4 2.402 2.403 2.403 0 0 0 2.401-2.401c0-1.323-1.077-2.4-2.401-2.4zm-.748-10.603v5.583h5.308v-5.583h-5.309zm12.139 5.583v-5.583h-5.31v5.583h5.31zm-12.9 1.522h13.66c.42 0 .761-.34.761-.761v-6.558a1.31 1.31 0 0 0-1.306-1.308h-12.57a1.31 1.31 0 0 0-1.307 1.308v6.558c0 .42.341.76.761.76z" fill="#fff"/>
</svg>
