<svg width="40" height="40" viewBox="0 0 40 40" fill="none" xmlns="http://www.w3.org/2000/svg">
    <g clip-path="url(#wqh7yhxzwa)" fill="#3D4F27">
        <path d="M39.658 18.615c-.525-2.802-1.706-5.224-3.416-7.005a15.22 15.22 0 0 0-2.695-2.205c-1.167-.757-2.514-1.44-4.24-2.147a73.763 73.763 0 0 0-2.218-.86 134.527 134.527 0 0 0-3.58-1.275 68.598 68.598 0 0 0-1.267-.414c-.664-.212-1.35-.432-2.012-.681-.408-.154-.58-.27-.65-.333a.484.484 0 0 1 .012-.013c.316-.36 2.155-1.804 3.24-2.63A.585.585 0 0 0 22.478 0h-12.03a.586.586 0 0 0-.293.079c-1.35.782-2.47 2.014-3.072 3.378-.699 1.58-.704 3.235-.016 4.784.942 2.121 2.933 3.298 4.69 4.336.458.27.891.527 1.3.794.242.157.49.312.73.462.902.563 1.753 1.095 2.434 1.843.701.772.913 1.757.612 2.85-.698 2.542-2.775 4.825-4.607 6.84-.34.372-.66.724-.97 1.075-.867.983-2.138 2.412-3.485 3.925C3.331 35.356.4 38.66.12 39.099a.585.585 0 0 0 .494.9l34.85.001a.586.586 0 0 0 .557-.405c.91-2.808 1.734-5.64 2.755-9.47 1.218-4.57 1.498-8.227.883-11.51zm-2.015 11.208c-.966 3.625-1.754 6.349-2.607 9.006h-2.103l.301-.925c.905-2.765 1.787-5.538 2.538-8.346.12-.448.244-.912.365-1.378a.586.586 0 0 0-1.134-.294c-.12.462-.243.923-.362 1.369-.737 2.754-1.624 5.546-2.52 8.285l-.42 1.289H19.364a.586.586 0 0 0-1.066-.18l-.113.18h-12.2c1.912-2.386 7.176-8.751 9.701-11.613 1.347-1.526 2.45-3.024 3.28-4.454 1.374-2.367 1.918-4.432 1.617-6.137-.646-3.663-3.524-5.135-6.063-6.434-.268-.137-.546-.28-.812-.42l-.048-.025a.586.586 0 0 0-.546 1.036l.048.025c.273.144.553.288.825.427 2.519 1.288 4.898 2.505 5.443 5.594.251 1.426-.246 3.224-1.478 5.346-.78 1.344-1.867 2.82-3.144 4.267-2.755 3.122-9.065 10.763-10.311 12.387H1.855c1.396-1.62 4.43-5.03 6.792-7.684 1.347-1.514 2.619-2.944 3.488-3.928.304-.345.621-.694.957-1.063 1.92-2.111 4.098-4.504 4.87-7.316.407-1.479.096-2.881-.875-3.949-1.282-1.41-3.112-2.36-4.734-3.32-1.684-.995-3.425-2.024-4.216-3.803-1.173-2.64.341-5.287 2.473-6.594h1.065c-1.605 1.177-2.543 2.367-2.85 3.607-.248 1.006-.063 2.011.55 2.988a6.233 6.233 0 0 0 1.332 1.487.586.586 0 0 0 .748-.902 5.083 5.083 0 0 1-1.088-1.208c-.444-.707-.576-1.389-.405-2.084.311-1.257 1.607-2.565 3.851-3.888h3.96c-1.039.818-2.194 1.935-1.881 3.307.31 1.362 1.887 2.123 3.059 2.614 1.527.64 3.11 1.15 4.642 1.641 2.505.805 5.096 1.638 7.418 3.056 2.65 1.619 4.335 3.995 4.874 6.87.35 1.867.267 3.954-.259 6.572l-.008.041a.586.586 0 0 0 1.148.23l.008-.041c.557-2.769.64-4.999.262-7.017-.602-3.211-2.474-5.858-5.415-7.654-2.44-1.492-5.1-2.346-7.67-3.172-1.508-.484-3.067-.985-4.547-1.606a8.486 8.486 0 0 1-1.176-.593c-.426-.263-1.071-.66-1.195-1.201-.2-.883 1.12-1.874 1.993-2.53.251-.188.477-.358.662-.517h1.076c-.772.609-2.667 1.541-2.356 2.784.156.624.835.952 1.409 1.169 1.091.411 2.211.731 3.315 1.107 1.221.417 2.415.842 3.548 1.265.696.26 1.442.542 2.183.846 1.656.679 2.942 1.33 4.046 2.046a14.053 14.053 0 0 1 2.488 2.033c1.552 1.616 2.627 3.833 3.11 6.41.582 3.105.307 6.598-.864 10.992z"/>
        <path d="M26.89 15.57a.585.585 0 1 0 .957-.675 8.683 8.683 0 0 0-1.09-1.268.586.586 0 1 0-.81.846c.348.334.666.703.943 1.097zM19.915 9.565l-.037-.02-1.354-.698a.586.586 0 0 0-.533 1.043c.45.23.899.463 1.348.696l.037.019a.584.584 0 0 0 .79-.25.586.586 0 0 0-.251-.79zM14.03 4.494c.137-.43.37-.796.638-1.003a.586.586 0 0 0-.716-.927c-.46.355-.828.915-1.038 1.577a.586.586 0 1 0 1.117.353zM15.704 7.49c-.527-.26-.892-.49-1.183-.749a.586.586 0 0 0-.777.876c.373.332.818.616 1.444.923a.583.583 0 0 0 .784-.267.586.586 0 0 0-.268-.784zM21.54 34.456a.586.586 0 0 0-.803.202c-.273.456-.542.904-.805 1.337a.585.585 0 1 0 1.002.606c.263-.434.534-.884.808-1.341a.586.586 0 0 0-.202-.804zM28.49 17.503a.585.585 0 0 0-.464.686 5.833 5.833 0 0 1 .1 1.416.586.586 0 0 0 1.17.053 8.518 8.518 0 0 0 .009-.366c0-.438-.043-.884-.129-1.325a.586.586 0 0 0-.686-.464zM23.913 30.41a.586.586 0 0 0-.8.214c-.253.436-.517.888-.786 1.348a.586.586 0 1 0 1.01.592c.27-.461.535-.915.789-1.353a.586.586 0 0 0-.213-.8zM28.26 22.125a.585.585 0 0 0-.752.345c-.164.438-.359.89-.597 1.38a.586.586 0 1 0 1.053.512c.255-.524.465-1.01.641-1.484a.586.586 0 0 0-.344-.753zM26.23 26.337a.586.586 0 0 0-.8.213c-.243.42-.518.895-.779 1.368a.586.586 0 0 0 1.026.566c.255-.463.527-.933.767-1.347a.585.585 0 0 0-.214-.8zM24.048 11.823a58.29 58.29 0 0 1-.751-.439 74.11 74.11 0 0 0-.594-.348.586.586 0 1 0-.587 1.014c.196.113.39.227.585.343.25.147.507.3.766.447a.583.583 0 0 0 .799-.218.586.586 0 0 0-.218-.799z"/>
    </g>
    <defs>
        <clipPath id="wqh7yhxzwa">
            <path fill="#fff" d="M0 0h40v40H0z"/>
        </clipPath>
    </defs>
</svg>
