<svg width="60" height="60" viewBox="0 0 60 60" fill="none" xmlns="http://www.w3.org/2000/svg">
    <path d="M25.802 14.719c-3.744-3.742-11.07-4.176-16.255-4.176a.973.973 0 0 0-.973.973c0 5.185.432 12.51 4.176 16.254 1.58 1.58 4.002 2.287 6.403 2.287 2.61 0 5.195-.835 6.649-2.288 2.788-2.789 3.3-9.752 0-13.05zm-1.376 11.676c-2.082 2.08-7.863 2.436-10.299 0-3.021-3.022-3.545-9.16-3.601-13.9 4.74.056 10.878.58 13.9 3.601 2.436 2.436 2.08 8.219 0 10.299zM50.452 14.39c-5.185 0-12.511.433-16.255 4.176-3.3 3.298-2.788 10.262 0 13.05 1.454 1.452 4.038 2.286 6.647 2.286 2.4 0 4.821-.704 6.405-2.284 3.742-3.743 4.176-11.07 4.176-16.254a.973.973 0 0 0-.973-.973zM45.87 30.24c-2.436 2.436-8.22 2.08-10.299 0-2.08-2.08-2.436-7.862 0-10.298 3.022-3.022 9.16-3.545 13.9-3.602-.056 4.742-.58 10.88-3.601 13.9z" fill="#fff"/>
    <path d="M43.429 22.814c-.23-.489-.887-.656-1.372-.43-7.462 3.508-11.128 9.625-12.793 15.913-2.06-13.37-8.02-17.447-10.548-19.176-.315-.216-.56-.374-.696-.508a.974.974 0 0 0-1.376 1.375c.193.191.525.43.975.738 2.848 1.947 10.415 7.125 10.415 27.76a.973.973 0 0 0 1.946.001c0-8.337 2.24-19.328 12.906-24.34 0-.002.158-.076.158-.076.484-.23.614-.771.385-1.258z" fill="#fff"/>
</svg>
