<svg width="60" height="60" viewBox="0 0 60 60" fill="none" xmlns="http://www.w3.org/2000/svg">
    <path d="M49.653 45.24h-1.998v-2.474a.821.821 0 0 0-.819-.819h-.851V25.16h.851c.45 0 .82-.369.82-.819v-2.473h.9c.45 0 .819-.368.819-.819v-3.284a.819.819 0 0 0-.516-.761l-18.556-7.42a.858.858 0 0 0-.606 0l-18.556 7.42a.819.819 0 0 0-.516.761v3.284c0 .45.368.819.819.819h.9v2.473c0 .45.369.819.82.819h.85v16.787h-.85a.821.821 0 0 0-.82.82v2.472h-1.998a.821.821 0 0 0-.819.82v3.594c0 .45.369.82.82.82h39.306c.45 0 .82-.37.82-.82v-3.595a.821.821 0 0 0-.82-.819zm-3.636 0h-6.412v-1.655H46.01v1.654h.008zm-11.178 0v-2.474a.821.821 0 0 0-.818-.819h-.852V25.16h.852c.45 0 .819-.369.819-.819v-2.473h3.12v2.473c0 .45.368.819.818.819h.852v16.787h-.852a.821.821 0 0 0-.819.82v2.472h-3.12zm-12.807 0v-2.474a.821.821 0 0 0-.819-.819h-.852V25.16h.852c.45 0 .819-.369.819-.819v-2.473h3.12v2.473c0 .45.368.819.819.819h.852v16.787h-.852a.821.821 0 0 0-.82.82v2.472h-3.12zm9.5-3.293h-3.064V25.16h3.063v16.787zm.818-18.425H26.798v-1.654h6.412v1.654h-.86zm-5.56 20.063H33.193v1.654h-6.411v-1.654h.008zm17.557-1.638h-3.063V25.16h3.063v16.787zm1.67-18.425H39.614v-1.654h6.412v1.654h-.009zm-33.755-5.2L30 11.231l17.737 7.091v1.908H12.263v-1.908zm1.72 3.538h6.412v1.654H13.99V21.86h-.008zm1.67 3.3h3.063v16.787h-3.062V25.16zm-1.67 18.425H20.386v1.654h-6.412v-1.654h.008zm34.852 5.25H11.165v-1.958h37.669v1.957z" fill="#fff"/>
</svg>
