<svg width="42" height="69" viewBox="0 0 42 69" fill="none" xmlns="http://www.w3.org/2000/svg">
    <path d="M6.252 42.217c-.849 0-1.697.155-2.47.386-.385.155-.54.54-.385.85a11.773 11.773 0 0 0 2.238 3.086c1.08.926 2.238 1.621 3.396 2.084.694.232 1.466.309 2.16.309 1.467 0 2.78-.463 4.014-1.235.309-.232.386-.617.155-.926-.695-.772-1.39-1.467-2.162-2.084-.926-.772-2.083-1.235-3.087-1.698-1.235-.54-2.547-.772-3.859-.772zM20.685 35.271c-.077 0-.231 0-.308.077-1.93 1.004-3.396 2.47-4.09 4.322-.464 1.08-.464 2.161-.387 3.242.077.926.386 1.852.926 2.624.078.154.309.309.463.309a.59.59 0 0 0 .386-.155c1.621-1.466 2.624-3.396 3.242-5.17.308-1.004.54-2.007.54-2.856 0-.695 0-1.39-.232-2.007a.58.58 0 0 0-.54-.386zM4.013 37.666c1.312.849 2.702 1.235 4.09 1.235.695 0 1.39-.078 2.162-.31.386-.076.54-.54.386-.848-.927-2.084-2.316-3.859-4.09-5.171C4.938 31.26 2.932 30.41.77 30.41H.618c-.385 0-.617.309-.617.694.232 1.313.617 2.547 1.312 3.628.849 1.235 1.698 2.238 2.701 2.933zM18.908 30.72c.154-.695.309-1.313.309-2.007 0-.309-.309-.54-.618-.54h-.154c-2.084.386-3.936 1.389-5.094 3.01-1.158 1.543-1.62 3.781-1.003 5.865a.58.58 0 0 0 .54.386c.077 0 .154 0 .309-.077 1.93-.926 3.473-2.47 4.476-4.013.54-.85 1.003-1.776 1.235-2.625zM2.24 25.624c1.544 1.776 3.473 2.702 5.634 2.702h.077c.386 0 .695-.31.618-.695-.155-1.003-.463-2.007-.772-2.933a9.838 9.838 0 0 0-1.775-3.164c-1.235-1.775-3.01-3.241-5.094-3.782H.774c-.309 0-.54.232-.618.54C.08 18.832.08 19.45.08 19.99c0 .772.077 1.467.309 2.161.463 1.235 1.08 2.47 1.852 3.473zM10.341 27.401c0 .309.232.617.618.617h.077c2.16-.385 4.013-1.389 5.402-2.546.772-.695 1.467-1.39 1.93-2.161.231-.386.463-.772.617-1.158.077-.232.155-.386.232-.617.077-.386-.155-.695-.54-.772-.386-.077-.695-.077-1.08-.077-1.699 0-3.32.463-4.709 1.466-.849.695-1.466 1.544-2.006 2.547-.386.772-.463 1.698-.54 2.701zM8.411 17.675h.155c.309 0 .54-.231.617-.54.155-1.003.155-2.084.077-3.087-.077-1.235-.385-2.393-.849-3.55-.694-2.007-2.006-3.936-3.858-5.094 0 0-.078-.077-.232-.077a.58.58 0 0 0-.54.386c-1.08 2.701-1.004 5.634-.077 7.718 1.003 2.16 2.7 3.627 4.707 4.244zM11.576 18.293c.464.077.85.077 1.235.077 1.698 0 3.319-.386 4.631-1.004 1.698-.694 2.933-1.697 3.782-3.01.231-.308.077-.694-.309-.848-1.158-.463-2.315-.772-3.473-.772-.849 0-1.698.154-2.47.463-1.003.386-1.852 1.08-2.624 1.852-.617.695-1.003 1.544-1.312 2.47-.077.386.155.772.54.772zM12.734 10.265c.077 0 .154 0 .309-.078 1.929-.926 3.473-2.238 4.476-3.781.617-.85 1.003-1.93 1.312-2.933.309-.849.463-1.852.463-2.856A.609.609 0 0 0 18.677 0h-.078a8.632 8.632 0 0 0-2.7.926c-1.159.54-1.93 1.467-2.702 2.47-1.235 1.852-1.698 4.245-1.08 6.483.076.231.308.386.617.386zM30.639 68.614c.54.155 1.003.309 1.543.309.309 0 .695.077 1.003.077.386 0 .772 0 1.158-.077.695-.077 1.39-.154 2.007-.386.617-.232 1.235-.54 1.775-.849 1.08-.695 1.93-1.544 2.47-2.547a8.431 8.431 0 0 0 .926-2.778c.077-.386-.232-.695-.618-.695h-.308c-.85 0-1.776.077-2.547.309-1.158.309-2.238.617-3.319 1.235a9.82 9.82 0 0 0-1.466 1.003c-.463.386-.926.772-1.312 1.158-.695.694-1.235 1.543-1.621 2.47-.232.231-.077.617.309.771zM41.754 59.042c0-1.003-.154-2.007-.386-2.855-.309-1.158-.695-2.161-1.235-3.088-.231-.463-.54-.849-.849-1.234-.309-.386-.617-.772-.926-1.08-.309-.31-.695-.618-1.08-.773-.155-.077-.386-.231-.54-.308-.078-.078-.155-.078-.232-.078-.232 0-.463.155-.54.463-.232 1.004-.386 1.93-.386 2.933 0 .54.077 1.158.231 1.698.154.54.309 1.004.618 1.544.54.926 1.234 1.852 2.16 2.47.772.462 1.621.848 2.47 1.003h.077c.31-.077.618-.309.618-.695zM22.92 64.445c.54.154 1.08.154 1.62.154.85 0 1.622-.154 2.316-.308 2.161-.54 3.859-2.161 4.785-4.168.155-.309-.077-.772-.386-.849-1.235-.386-2.47-.54-3.704-.54-.926 0-1.852.077-2.701.309-2.084.54-4.091 1.466-5.48 3.164-.232.309-.155.772.154.926 1.003.617 2.238 1.003 3.396 1.312zM31.799 57.422c.077.077.154.077.309.077.231 0 .463-.154.54-.463.617-2.16.463-4.322.077-6.174-.232-1.004-.617-1.852-1.08-2.701-.31-.618-.772-1.08-1.235-1.544-.155-.077-.232-.154-.386-.154-.155 0-.386.077-.463.308-1.158 1.93-1.621 4.014-1.235 5.943.308 2.007 1.62 3.782 3.473 4.708zM22.536 55.106c.232-.309.155-.695-.154-.926a17.069 17.069 0 0 0-2.624-1.39 6.961 6.961 0 0 0-1.698-.462c-.54-.155-1.158-.232-1.698-.31h-.926c-1.852 0-3.704.464-5.248 1.544-.309.232-.386.618-.077.927.926 1.003 1.93 1.775 2.932 2.315 1.235.617 2.625.926 3.782 1.003h.232c1.157 0 2.238-.308 3.241-.772.85-.617 1.621-1.234 2.238-1.929zM21.379 48.778c.077.54.308 1.08.463 1.544.386.849.849 1.62 1.543 2.238a.59.59 0 0 0 .386.154c.232 0 .386-.077.54-.308a9.748 9.748 0 0 0 1.158-2.624c.309-1.081.463-2.161.54-3.242.078-1.08-.077-2.007-.308-2.933-.155-.694-.386-1.312-.772-1.852-.077-.154-.309-.232-.463-.232-.155 0-.309.078-.463.155-1.62 1.543-2.547 3.318-2.779 5.402.078.54.078 1.158.155 1.698z" fill="#A8C476"/>
</svg>
