<svg width="47" height="47" viewBox="0 0 47 47" fill="none" xmlns="http://www.w3.org/2000/svg">
    <g clip-path="url(#949e1qen8a)">
        <circle cx="23.5" cy="23.5" r="19.907" fill="#fff"/>
        <path fill-rule="evenodd" clip-rule="evenodd" d="M23.5 0C36.479 0 47 10.521 47 23.5S36.479 47 23.5 47 0 36.479 0 23.5 10.521 0 23.5 0zm13.797 34.372a1.801 1.801 0 0 0 0-2.54l-4.6-4.6a1.802 1.802 0 0 0-2.542 0l-1.25 1.25a2.736 2.736 0 0 1-3.235.485 18.376 18.376 0 0 1-7.637-7.636 2.738 2.738 0 0 1 .484-3.236l1.252-1.25a1.802 1.802 0 0 0 0-2.542l-4.6-4.598a1.802 1.802 0 0 0-2.542 0c-.19.19-.43.418-.688.66-.643.609-1.445 1.365-1.77 1.841-1.708 2.5-.89 5.846.095 8.212 1.3 3.12 3.697 6.518 6.75 9.57 3.052 3.05 6.449 5.447 9.57 6.747 2.366.986 5.71 1.803 8.21.095.475-.325 1.233-1.125 1.84-1.77.243-.256.472-.498.663-.688z" fill="#25D366"/>
    </g>
    <defs>
        <clipPath id="949e1qen8a">
            <path fill="#fff" transform="scale(1.01067)" d="M0 0h46.504v46.504H0z"/>
        </clipPath>
    </defs>
</svg>
