<svg width="40" height="40" viewBox="0 0 40 40" fill="none" xmlns="http://www.w3.org/2000/svg">
    <g clip-path="url(#agt2zteaha)" fill="#3D4F27">
        <path d="M38.125 38.125v-18.75h-1.25v-2.5h-1.25v-3.75h-1.25v-2.5h-1.25v2.5h-1.25v3.75h-1.25V2.988l-3.75.75V1.874h-1.25v2.112l-1.25.25V.625h-1.25v3.862l-1.25.25V1.875h-1.25v3.113l-3.75.75v3.637H5.625v1.25h1.25v7.557a3.83 3.83 0 0 0-.625-.057c-2.412 0-4.375 2.243-4.375 5 0 2.514 1.634 4.594 3.75 4.943v.814c-.523-.473-1.171-.757-1.875-.757-1.723 0-3.125 1.682-3.125 3.75 0 1.811 1.076 3.326 2.5 3.674v2.576h-2.5v1.25h38.75v-1.25h-1.25zm-27.5-.625a1.877 1.877 0 0 1 3.51-.92l.193.343.672-.048c.184 0 .377.036.592.108l.608.204.19-.612a3.11 3.11 0 0 1 2.985-2.2 3.13 3.13 0 0 1 2.737 1.617l.39.707.587-.556c.704-.667 1.867-.667 2.572 0l.586.556.39-.707a3.132 3.132 0 0 1 2.738-1.617c1.357 0 2.55.867 2.97 2.159l.176.54.555-.123a3.115 3.115 0 0 1 3.16 1.174h-25.49a1.871 1.871 0 0 1-.121-.625zm26.25-16.875v16.336a4.412 4.412 0 0 0-1.25-.901V21.875h-8.75v12.044c-.35.245-.67.536-.939.877a2.887 2.887 0 0 0-.311-.153V20.625h11.25zm-7.5 12.5c-.43 0-.85.07-1.25.19v-10.19h2.5v10.181a4.388 4.388 0 0 0-1.25-.181zm2.5-10h2.5v12.559a4.285 4.285 0 0 0-1.038-.039 4.358 4.358 0 0 0-1.462-1.728V23.125zm-5-3.75v-1.25h8.75v1.25h-8.75zm6.25-5h1.25v2.5h-1.25v-2.5zm-3.75-9.863v12.363h-3.75v2.5h-1.25v15.01c-.545 0-1.09.137-1.561.411a4.379 4.379 0 0 0-4.689-1.492V6.762l11.25-2.25zm-21.25 6.113h8.75v23.288a4.34 4.34 0 0 0-1.47 1.743 3.159 3.159 0 0 0-.404-.03 3.132 3.132 0 0 0-2.501-1.251A3.129 3.129 0 0 0 9.375 37.5c0 .211.028.42.07.625h-2.57v-2.27l3.75-4.374v-1.538c2.116-.349 3.75-2.43 3.75-4.943 0-1.881-.915-3.522-2.262-4.375h1.012v-1.25h-1.25v1.114A3.897 3.897 0 0 0 10 20a3.48 3.48 0 0 0-.329.017 4.548 4.548 0 0 0-1.546-1.403v-7.989zm2.5 12.5c0-.656-.114-1.282-.316-1.856 1.579.187 2.816 1.789 2.816 3.731 0 2.068-1.402 3.75-3.125 3.75-.789 0-1.538-.363-2.11-.993 1.601-.743 2.735-2.538 2.735-4.632zm-3.75 5.363c.67.786 1.545 1.3 2.5 1.457v1.074l-2.5 2.917v-5.448zm-3.75-5.363c0-2.068 1.402-3.75 3.125-3.75s3.125 1.682 3.125 3.75c0 1.811-1.076 3.326-2.5 3.674V22.5h-1.25v4.3c-1.424-.35-2.5-1.864-2.5-3.675zm-1.25 8.75c0-1.379.841-2.5 1.875-2.5s1.875 1.121 1.875 2.5-.841 2.5-1.875 2.5-1.875-1.121-1.875-2.5zm2.5 3.674a2.899 2.899 0 0 0 1.25-.68v3.256h-1.25v-2.576z"/>
        <path d="M23.125 8.125h-3.75v5h3.75v-5zm-1.25 3.75h-1.25v-2.5h1.25v2.5zM23.125 14.375h-3.75v5h3.75v-5zm-1.25 3.75h-1.25v-2.5h1.25v2.5zM23.125 20.625h-3.75v5h3.75v-5zm-1.25 3.75h-1.25v-2.5h1.25v2.5zM23.125 26.875h-3.75v5h3.75v-5zm-1.25 3.75h-1.25v-2.5h1.25v2.5zM28.125 8.125h-3.75v5h3.75v-5zm-1.25 3.75h-1.25v-2.5h1.25v2.5zM9.375 11.875h1.25v1.25h-1.25v-1.25zM11.875 11.875h1.25v1.25h-1.25v-1.25zM14.375 11.875h1.25v1.25h-1.25v-1.25zM9.375 14.375h1.25v1.25h-1.25v-1.25zM11.875 14.375h1.25v1.25h-1.25v-1.25zM14.375 14.375h1.25v1.25h-1.25v-1.25zM11.875 16.875h1.25v1.25h-1.25v-1.25zM9.375 16.875h1.25v1.25h-1.25v-1.25zM14.375 16.875h1.25v1.25h-1.25v-1.25zM14.375 19.375h1.25v1.25h-1.25v-1.25z"/>
    </g>
    <defs>
        <clipPath id="agt2zteaha">
            <path fill="#fff" d="M0 0h40v40H0z"/>
        </clipPath>
    </defs>
</svg>
