<svg width="42" height="69" viewBox="0 0 42 69" fill="none" xmlns="http://www.w3.org/2000/svg">
    <path d="M36.082 46.593c.85-.85 1.623-1.932 2.24-3.09.155-.31 0-.696-.386-.85a8.708 8.708 0 0 0-2.472-.387c-1.314 0-2.627.309-3.786.773-1.082.463-2.241 1.004-3.091 1.7-.773.617-1.468 1.313-2.163 2.086-.232.309-.155.695.154.927 1.236.773 2.55 1.236 4.018 1.236.695 0 1.468-.077 2.163-.309a10.89 10.89 0 0 0 3.323-2.086zM20.324 37.707c0 .927.154 1.854.54 2.859.619 1.777 1.623 3.709 3.246 5.177.154.077.231.154.386.154s.386-.077.464-.309c.54-.85.85-1.7.927-2.627.154-1.159.077-2.24-.387-3.245-.695-1.932-2.163-3.4-4.095-4.327-.077-.077-.232-.077-.309-.077a.581.581 0 0 0-.54.386 4.374 4.374 0 0 0-.232 2.009zM41.647 31.141c.077-.386-.232-.695-.618-.695h-.155c-2.086 0-4.172.927-5.795 2.163-1.777 1.314-3.168 3.091-4.095 5.177-.154.31 0 .773.386.85.696.232 1.391.31 2.164.31 1.39 0 2.782-.387 4.095-1.237 1.005-.696 1.932-1.7 2.704-2.936.696-1.082 1.082-2.318 1.314-3.632zM28.82 37.477a.581.581 0 0 0 .54-.386c.619-2.087.078-4.25-1.004-5.873-1.236-1.622-3.013-2.627-5.1-3.013h-.154c-.309 0-.618.232-.618.54 0 .696.154 1.314.31 2.01.23.85.694 1.777 1.313 2.627 1.004 1.545 2.472 3.09 4.481 4.018.077.077.155.077.232.077zM35.775 21.404a18.373 18.373 0 0 0-1.777 3.168c-.31.928-.618 1.932-.773 2.937-.077.386.232.695.618.695h.078c2.163 0 4.095-.927 5.64-2.704a9.974 9.974 0 0 0 1.777-3.632c.232-.695.31-1.468.31-2.163 0-.541 0-1.082-.078-1.7 0-.31-.309-.541-.618-.541h-.155c-2.086.773-3.863 2.24-5.022 3.94zM31.37 27.43c0-1.004-.154-1.931-.54-2.781-.464-1.005-1.16-1.932-2.01-2.55-1.313-1.004-2.935-1.468-4.712-1.468-.387 0-.696 0-1.082.077-.386.078-.695.387-.541.773.077.232.155.464.232.618.154.386.386.773.618 1.16.464.772 1.159 1.467 1.932 2.163 1.39 1.159 3.245 2.24 5.408 2.55h.078c.386 0 .618-.232.618-.541zM33.146 17.696h.154c2.087-.619 3.71-2.087 4.714-4.173.927-2.163 1.004-5.022-.078-7.726a.58.58 0 0 0-.54-.387c-.078 0-.232 0-.31.077-1.854 1.16-3.167 3.091-3.863 5.1-.463 1.16-.773 2.395-.85 3.554a13.908 13.908 0 0 0 .078 3.091c.077.31.386.464.695.464zM20.551 14.373c.773 1.314 2.087 2.318 3.786 3.013 1.314.619 2.936 1.005 4.636 1.005.387 0 .85 0 1.237-.077.386-.078.618-.387.54-.773-.308-.927-.695-1.777-1.313-2.473-.773-.85-1.623-1.468-2.627-1.854a6.694 6.694 0 0 0-2.473-.464 8.103 8.103 0 0 0-3.477.773c-.386.155-.463.541-.309.85zM28.743 10.2c.077.077.154.077.309.077a.58.58 0 0 0 .54-.387c.619-2.163.155-4.559-1.081-6.49-.696-1.005-1.546-1.932-2.627-2.473A8.641 8.641 0 0 0 23.179 0h-.077c-.309 0-.618.31-.618.618 0 1.005.154 2.01.464 2.859.386 1.004.695 2.086 1.313 2.936a11.42 11.42 0 0 0 4.482 3.786zM3.631 67.687c.541.309 1.082.618 1.777.85.619.231 1.314.309 2.01.386.386 0 .772.077 1.158.077.31 0 .696 0 1.005-.077.54-.077 1.004-.155 1.545-.31.387-.076.541-.463.464-.85-.386-.926-.927-1.776-1.623-2.472a6.155 6.155 0 0 0-1.313-1.159c-.464-.386-1.005-.695-1.546-1.004-1.081-.618-2.163-.927-3.322-1.236-.85-.232-1.7-.31-2.55-.31H.927c-.386 0-.695.31-.618.696a8.44 8.44 0 0 0 .927 2.782C1.7 66.14 2.55 66.99 3.631 67.686zM.695 59.73c.928-.154 1.778-.54 2.473-1.004.927-.618 1.623-1.546 2.163-2.473a9.208 9.208 0 0 0 .619-1.545c.154-.541.231-1.16.231-1.7 0-.927-.077-1.932-.386-2.936-.077-.232-.31-.464-.54-.464-.078 0-.155 0-.233.077-.154.078-.386.232-.54.31a9.37 9.37 0 0 0-1.082.772c-.31.31-.618.695-.927 1.082-.31.386-.619.773-.85 1.236-.541.927-.928 1.932-1.237 3.09C.155 57.104 0 58.03 0 59.036c0 .309.31.618.618.618 0 .077.077.077.077.077zM14.912 64.365c.695.231 1.545.309 2.318.309.54 0 1.082-.078 1.622-.155 1.16-.232 2.396-.618 3.477-1.39.31-.233.387-.619.155-.928-1.39-1.7-3.4-2.704-5.486-3.168-.927-.154-1.777-.309-2.704-.309-1.237 0-2.473.155-3.71.54-.385.078-.54.542-.385.85.85 2.087 2.472 3.632 4.713 4.25zM9.66 57.565c.078 0 .155 0 .31-.077 1.854-.927 3.168-2.705 3.554-4.636.464-1.932-.077-4.095-1.236-5.95-.077-.154-.31-.309-.464-.309a.59.59 0 0 0-.386.155c-.464.463-.927.927-1.236 1.545-.464.85-.85 1.7-1.082 2.704-.386 1.855-.54 4.018.077 6.182-.077.232.155.386.464.386zM24.88 57.798c1.236-.077 2.55-.309 3.786-1.004 1.005-.618 2.087-1.314 2.936-2.318.232-.31.232-.695-.077-.927-1.545-1.082-3.4-1.546-5.254-1.546h-.927c-.618.078-1.16.155-1.7.31a6.137 6.137 0 0 0-1.7.463c-.927.31-1.777.85-2.627 1.39-.31.233-.386.619-.155.928a7.38 7.38 0 0 0 2.241 1.855c1.005.54 2.086.772 3.245.772.078.077.155.077.232.077zM17.232 41.648c-.155 0-.387.077-.464.232-.386.54-.618 1.159-.773 1.854-.231.928-.386 1.855-.309 2.937.078 1.081.232 2.163.541 3.245.232.927.618 1.777 1.16 2.627.077.154.308.309.54.309a.59.59 0 0 0 .387-.155c.695-.618 1.236-1.468 1.545-2.24.232-.541.386-1.082.463-1.546.078-.54.078-1.159.078-1.7-.155-2.008-1.16-3.863-2.782-5.408-.154-.155-.309-.155-.386-.155z" fill="#A8C476"/>
</svg>
