<svg width="40" height="40" viewBox="0 0 40 40" fill="none" xmlns="http://www.w3.org/2000/svg">
    <g clip-path="url(#81we2v6coa)" fill="#3D4F27">
        <path d="M37.527 38.652h-1.123V3.37a.674.674 0 0 0-.675-.674H23.146a.674.674 0 0 0-.674.674v2.921h-1.348V3.371a.674.674 0 0 0-.674-.674h-2.922V.674a.674.674 0 1 0-1.348 0v2.023h-2.921a.674.674 0 0 0-.674.674v2.921H10.56a.674.674 0 0 0-.674.674v5.618H4.269a.674.674 0 0 0-.674.674v25.394H2.47a.674.674 0 1 0 0 1.348h35.056a.674.674 0 1 0 0-1.348zM13.932 4.045h5.842v2.247h-5.842V4.045zm-2.248 34.607h-.449v-1.124a.674.674 0 0 0-1.348 0v1.124h-.45v-2.248h2.248v2.248zm4.495-17.304v17.304h-3.146V35.73a.674.674 0 0 0-.674-.674H8.763a.674.674 0 0 0-.674.674v2.922H4.943v-24.72h11.236v7.416zm.674-8.764h-5.618V7.64h11.236v13.034h-4.944v-2.247h2.023a.674.674 0 0 0 0-1.348h-2.023V14.83h2.023a.674.674 0 1 0 0-1.348h-2.023v-.225a.674.674 0 0 0-.674-.674zm11.91 26.068H17.527V22.023h11.236v16.629zm6.292 0h-4.944V20.449a.674.674 0 0 0-1.348 0v.225h-1.348v-.225a.674.674 0 1 0-1.348 0v.225H23.82V4.045h11.235v34.607z"/>
        <path d="M20.448 37.304a.674.674 0 0 0 .674-.675V24.046a.674.674 0 1 0-1.349 0V36.63c0 .373.302.675.675.675zM23.143 37.304a.674.674 0 0 0 .674-.675V24.046a.674.674 0 1 0-1.348 0V36.63c0 .373.301.675.674.675zM25.842 37.304a.674.674 0 0 0 .674-.675V24.046a.674.674 0 1 0-1.348 0V36.63c0 .373.302.675.674.675zM26.74 8.538a.674.674 0 0 0 .675-.674v-.899a.674.674 0 1 0-1.349 0v.9c0 .371.302.673.675.673zM29.436 8.538a.674.674 0 0 0 .674-.674v-.899a.674.674 0 1 0-1.348 0v.9c0 .371.302.673.674.673zM32.135 8.538a.674.674 0 0 0 .674-.674v-.899a.674.674 0 1 0-1.348 0v.9c0 .371.302.673.674.673zM26.74 13.034a.674.674 0 0 0 .675-.674v-.899a.674.674 0 0 0-1.349 0v.9c0 .372.302.673.675.673zM29.436 13.034a.674.674 0 0 0 .674-.674v-.899a.674.674 0 1 0-1.348 0v.9c0 .372.302.673.674.673zM32.135 13.034a.674.674 0 0 0 .674-.674v-.899a.674.674 0 1 0-1.348 0v.9c0 .372.302.673.674.673zM26.74 17.528a.674.674 0 0 0 .675-.674v-.899a.674.674 0 0 0-1.349 0v.9c0 .372.302.673.675.673zM29.436 17.528a.674.674 0 0 0 .674-.674v-.899a.674.674 0 1 0-1.348 0v.9c0 .372.302.673.674.673zM32.135 17.528a.674.674 0 0 0 .674-.674v-.899a.674.674 0 1 0-1.348 0v.9c0 .372.302.673.674.673zM7.866 19.325a.674.674 0 0 0 .674-.674v-.899a.674.674 0 1 0-1.349 0v.9c0 .371.302.673.675.673zM10.56 19.325a.674.674 0 0 0 .675-.674v-.899a.674.674 0 1 0-1.348 0v.9c0 .371.301.673.674.673zM13.256 19.325a.674.674 0 0 0 .674-.674v-.899a.674.674 0 1 0-1.348 0v.9c0 .371.302.673.674.673zM7.866 23.821a.674.674 0 0 0 .674-.674v-.899a.674.674 0 1 0-1.349 0v.9c0 .372.302.673.675.673zM10.56 23.821a.674.674 0 0 0 .675-.674v-.899a.674.674 0 1 0-1.348 0v.9c0 .372.301.673.674.673zM13.256 23.821a.674.674 0 0 0 .674-.674v-.899a.674.674 0 1 0-1.348 0v.9c0 .372.302.673.674.673zM7.866 28.316a.674.674 0 0 0 .674-.675v-.898a.674.674 0 1 0-1.349 0v.898c0 .373.302.675.675.675zM10.56 28.316a.674.674 0 0 0 .675-.675v-.898a.674.674 0 1 0-1.348 0v.898c0 .373.301.675.674.675zM13.256 28.316a.674.674 0 0 0 .674-.675v-.898a.674.674 0 1 0-1.348 0v.898c0 .373.302.675.674.675zM7.866 32.812a.674.674 0 0 0 .674-.674v-.9a.674.674 0 1 0-1.349 0v.9c0 .372.302.674.675.674zM10.56 32.812a.674.674 0 0 0 .675-.674v-.9a.674.674 0 1 0-1.348 0v.9c0 .372.301.674.674.674zM13.256 32.812a.674.674 0 0 0 .674-.674v-.9a.674.674 0 1 0-1.348 0v.9c0 .372.302.674.674.674zM32.135 22.024a.674.674 0 0 0 .674-.674v-.899a.674.674 0 1 0-1.348 0v.9c0 .372.302.674.674.674zM32.135 26.519a.674.674 0 0 0 .674-.674v-.9a.674.674 0 1 0-1.348 0v.9c0 .372.302.674.674.674zM32.135 31.01a.674.674 0 0 0 .674-.673v-.9a.674.674 0 1 0-1.348 0v.9c0 .372.302.674.674.674zM32.135 35.507a.674.674 0 0 0 .674-.674v-.9a.674.674 0 1 0-1.348 0v.9c0 .372.302.674.674.674zM20.222 10.563a.674.674 0 0 0-.674-.674h-5.393a.674.674 0 1 0 0 1.348h5.393a.674.674 0 0 0 .674-.674z"/>
    </g>
    <defs>
        <clipPath id="81we2v6coa">
            <path fill="#fff" d="M0 0h40v40H0z"/>
        </clipPath>
    </defs>
</svg>
