<svg width="46" height="46" viewBox="0 0 46 46" fill="none" xmlns="http://www.w3.org/2000/svg">
    <rect width="46" height="46" rx="23" fill="#25D366"/>
    <path d="M33.14 12.858a14.263 14.263 0 0 0-22.849 16.5l-1.513 7.347a.544.544 0 0 0 .086.426.551.551 0 0 0 .586.228l7.2-1.707a14.26 14.26 0 0 0 16.49-22.794zm-2.245 17.92a11.17 11.17 0 0 1-12.864 2.09l-1.004-.496-4.415 1.045.014-.055.914-4.443-.491-.97a11.165 11.165 0 1 1 17.846 2.829z" fill="#fff"/>
    <path d="M30.504 27.518c-.54.852-1.396 1.895-2.47 2.153-1.881.455-4.77.016-8.363-3.335l-.045-.039c-3.16-2.93-3.98-5.368-3.782-7.302.11-1.098 1.025-2.091 1.796-2.74a1.028 1.028 0 0 1 1.607.37l1.163 2.613a1.022 1.022 0 0 1-.128 1.045l-.588.763a1.011 1.011 0 0 0-.091 1.13c.329.577 1.118 1.427 1.994 2.213.983.889 2.072 1.702 2.762 1.979a.999.999 0 0 0 1.096-.23l.682-.688a1.045 1.045 0 0 1 1.02-.261l2.762.784a1.047 1.047 0 0 1 .585 1.545z" fill="#fff"/>
</svg>
